<svg xmlns="http://www.w3.org/2000/svg" xmlns:xlink="http://www.w3.org/1999/xlink" contentStyleType="text/css" data-diagram-type="DESCRIPTION" height="263px" preserveAspectRatio="none" style="width:337px;height:263px;background:#FFFFFF;" version="1.1" viewBox="0 0 337 263" width="337px" zoomAndPan="magnify"><defs/><g><!--cluster Level 1: Code-First API--><g class="cluster" data-entity="Level 1. Code-First API" data-source-line="20" data-uid="ent0002" id="cluster_Level 1. Code-First API"><rect fill="#F6E6E6" height="250.53" rx="4" ry="4" style="stroke:#333333;stroke-width:1;" width="324" x="7" y="7"/><text fill="#222222" font-family="sans-serif" font-size="14" font-weight="bold" lengthAdjust="spacing" textLength="165.3613" x="86.3193" y="22.5352">Level 1: Code-First API</text></g><!--entity L1Contract--><g class="entity" data-entity="L1Contract" data-source-line="23" data-uid="ent0003" id="entity_L1Contract"><rect fill="#FBEFEF" height="52.9766" rx="4" ry="4" style="stroke:#333333;stroke-width:0.5;" width="133.0186" x="23.49" y="42"/><text fill="#222222" font-family="sans-serif" font-size="14" lengthAdjust="spacing" textLength="58.0781" x="60.9602" y="65.5352">Contract</text><text fill="#222222" font-family="sans-serif" font-size="14" lengthAdjust="spacing" textLength="113.0186" x="33.49" y="82.0234">(optional / stale)</text></g><!--entity L1Code--><g class="entity" data-entity="L1Code" data-source-line="24" data-uid="ent0004" id="entity_L1Code"><rect fill="#EBCACA" height="36.4883" rx="4" ry="4" style="stroke:#333333;stroke-width:0.5;" width="132.5195" x="22.74" y="180.01"/><text fill="#222222" font-family="sans-serif" font-size="14" lengthAdjust="spacing" textLength="112.5195" x="32.74" y="203.5452">API Service Code</text></g><g class="entity" data-entity="GMN6" data-source-line="29" data-uid="ent0007" id="entity_GMN6"><path d="M190.66,154.98 L190.66,194.25 L155.62,198.25 L190.66,202.25 L190.66,241.5327 A0,0 0 0 0 190.66,241.5327 L315.3426,241.5327 A0,0 0 0 0 315.3426,241.5327 L315.3426,164.98 L305.3426,154.98 L190.66,154.98 A0,0 0 0 0 190.66,154.98" fill="#FFFDE7" style="stroke:#999999;stroke-width:0.5;"/><path d="M305.3426,154.98 L305.3426,164.98 L315.3426,164.98 L305.3426,154.98" fill="#FFFDE7" style="stroke:#999999;stroke-width:0.5;"/><text fill="#222222" font-family="sans-serif" font-size="13" lengthAdjust="spacing" textLength="63.6099" x="216.6964" y="172.5484">BEHAVIOR</text><text fill="#222222" font-family="sans-serif" font-size="13" lengthAdjust="spacing" textLength="74.8643" x="211.0692" y="187.8589">- Validation</text><text fill="#222222" font-family="sans-serif" font-size="13" lengthAdjust="spacing" textLength="103.6826" x="196.66" y="203.1695">- Business Logic</text><text fill="#222222" font-family="sans-serif" font-size="13" lengthAdjust="spacing" textLength="82.4688" x="207.2669" y="218.48">- Persistence</text><text fill="#222222" font-family="sans-serif" font-size="13" lengthAdjust="spacing" textLength="49.2515" x="223.8756" y="233.7905">- Errors</text></g><!--link L1Contract to L1Code--><g class="link" data-entity-1="L1Contract" data-entity-2="L1Code" data-source-line="26" data-uid="lnk5" id="link_L1Contract_L1Code"><path d="M89.8,95.34 C89.6,120.43 89.3567,151.8102 89.1867,173.6402" fill="none" id="L1Contract-to-L1Code" style="stroke:#555555;stroke-width:1;stroke-dasharray:7,7;"/><polygon fill="#555555" points="89.14,179.64,93.21,170.6714,89.1789,174.6402,85.2102,170.6091,89.14,179.64" style="stroke:#555555;stroke-width:1;"/></g><!--SRC=[RL9DJyCm3BttLrZR0JXK212V1wIsj82410B41JXaZTT5X7XoCWP2_7VSh410k6gbl6U_PpjTW_mxuDJIH5dmuSqQroLCvf-CcojMpp1HxLF7j72w8aiCova9cF1-fZGj-_AfiZvbD4xLmePRV0s5DPrxHXUWbGzoabKmqt8bFTwDaIKiOnkKwop2UmPG4cla8NadXg0DkJ1Wsp44krurp0uP3hAFLD9H6DJ-J3PkckQatl_hSnZZNn_HNKltUO4lQ64hNUJF0AE1FOAADEQDOH-Wk3eVYV5UBKziAj1SNfXG22GhD7sz8PS9bKXLqWghDZouTPhtlDpYfjoZihWn0kNXOkihHTJBkgcRtmBY2pV8BwR5sCvtaKOOrsLLL4LlcSZazrhv6Uh7_7X8x1FYCjbqim0q_S91egpFYhlpo-juoE5EMQDLd6G5b0jl77enfSwq0tY5x8qFw5eSa5h-3lPoGAUZMVRn2G00]--></g></svg>