<svg xmlns="http://www.w3.org/2000/svg" xmlns:xlink="http://www.w3.org/1999/xlink" contentStyleType="text/css" data-diagram-type="DESCRIPTION" height="567px" preserveAspectRatio="none" style="width:257px;height:567px;background:#FFFFFF;" version="1.1" viewBox="0 0 257 567" width="257px" zoomAndPan="magnify"><title>Separation After Persistence</title><defs/><g><g class="title" data-source-line="1"><text fill="#000000" font-family="sans-serif" font-size="14" font-weight="bold" lengthAdjust="spacing" textLength="204.5107" x="19.6992" y="23.5352">Separation After Persistence</text></g><!--entity Api--><g class="entity" data-entity="Api" data-source-line="21" data-uid="ent0002" id="entity_Api"><rect fill="#EAF4EA" height="85.9531" rx="4" ry="4" style="stroke:#333333;stroke-width:0.5;" width="204.8096" x="27.05" y="44.4883"/><text fill="#222222" font-family="sans-serif" font-size="14" lengthAdjust="spacing" textLength="119.3623" x="69.7736" y="68.0234">CaaS API Runtime</text><text fill="#222222" font-family="sans-serif" font-size="14" lengthAdjust="spacing" textLength="4.4297" x="127.2399" y="84.5117">&#160;</text><text fill="#222222" font-family="sans-serif" font-size="14" lengthAdjust="spacing" textLength="141.2236" x="58.843" y="101">- Contract validation</text><text fill="#222222" font-family="sans-serif" font-size="14" lengthAdjust="spacing" textLength="184.8096" x="37.05" y="117.4883">- Deterministic persistence</text></g><!--entity Db--><g class="entity" data-entity="Db" data-source-line="23" data-uid="ent0003" id="entity_Db"><rect fill="#D6EAD6" height="52.9766" rx="4" ry="4" style="stroke:#333333;stroke-width:0.5;" width="136.751" x="61.08" y="190.4383"/><text fill="#222222" font-family="sans-serif" font-size="14" lengthAdjust="spacing" textLength="116.751" x="71.08" y="213.9734">Persistence Layer</text><text fill="#222222" font-family="sans-serif" font-size="14" lengthAdjust="spacing" textLength="74.3203" x="92.2953" y="230.4617">(MongoDB)</text></g><!--entity Events--><g class="entity" data-entity="Events" data-source-line="25" data-uid="ent0004" id="entity_Events"><path d="M38.0298,312.5401 C42.6515,306.1137 48.2376,307.4451 51.8286,313.6647 C54.4457,307.5908 59.0678,306.8244 63.7232,311.3848 C68.1774,305.1816 72.5476,305.2892 76.4758,311.9079 C81.4261,304.443 86.4463,304.5309 92.0005,311.2469 C96.0572,304.6012 101.4759,305.9283 104.6449,312.1211 C109.423,304.7676 113.6605,306.0521 118.2905,312.2699 C121.1258,306.4278 127.1974,305.4803 131.1546,310.9995 C135.5583,304.6719 140.1863,302.9291 145.1562,310.426 C149.6943,305.5031 155.2056,305.5814 157.8914,312.43 C160.588,305.6286 166.5369,305.3369 170.9734,310.533 C175.6911,305.3521 179.5218,304.9202 182.9667,311.7987 C186.8086,304.053 192.5496,303.9625 197.0861,311.1416 C201.5446,305.9279 208.3721,306.6795 210.8385,313.4313 C215.3117,306.9081 220.1578,305.72 224.9724,313.0838 C238.6035,317.8255 239.2241,326.0041 230.9516,336.37 C240.21,346.8865 238.3283,356.1721 224.1284,359.8805 C219.8263,365.9647 215.5319,366.128 210.9775,360.1557 C207.0726,366.2998 200.3005,366.9895 196.5585,359.9772 C192.4902,366.1665 188.2401,368.4022 182.7907,361.421 C179.4037,365.7152 173.9784,366.5076 171.716,360.2416 C167.3083,366.2133 161.8583,368.0903 157.3374,360.3605 C152.6737,366.5138 148.4218,366.8832 144.2514,359.8703 C140.8966,366.7058 134.1485,366.923 130.6445,360.0181 C126.8243,366.8275 121.9566,367.7728 117.0456,361.1199 C113.7103,367.4632 106.8557,368.0483 103.1972,361.4663 C99.1871,366.068 94.5718,364.953 91.9856,359.8256 C87.4124,366.0393 81.719,368.2824 76.8924,360.0912 C73.0097,367.0195 68.9876,365.5917 64.4386,360.7992 C60.7102,367.4732 54.8761,366.4552 51.3936,360.5444 C46.5935,366.6328 41.9827,365.6859 37.8093,359.8315 C22.7573,357.5285 20.1639,348.556 29.2209,337.1315 C20.3851,325.5057 25.0925,316.3665 38.0298,312.5401" fill="#F0F0F0" style="stroke:#333333;stroke-width:0.5;"/><text fill="#222222" font-family="sans-serif" font-size="14" lengthAdjust="spacing" textLength="172.5049" x="43.2" y="331.9534">MongoDB Change Stream</text><text fill="#222222" font-family="sans-serif" font-size="14" lengthAdjust="spacing" textLength="101.6094" x="78.6478" y="348.4417">(Durable Facts)</text></g><!--entity Biz--><g class="entity" data-entity="Biz" data-source-line="27" data-uid="ent0005" id="entity_Biz"><rect fill="#E9F0F8" height="135.418" rx="4" ry="4" style="stroke:#333333;stroke-width:0.5;" width="244.9092" x="7" y="426.3883"/><text fill="#222222" font-family="sans-serif" font-size="14" lengthAdjust="spacing" textLength="158.5732" x="50.168" y="449.9234">Business Event Services</text><text fill="#222222" font-family="sans-serif" font-size="14" lengthAdjust="spacing" textLength="224.9092" x="17" y="466.4117">(Event-driven domain workflows)</text><text fill="#222222" font-family="sans-serif" font-size="14" lengthAdjust="spacing" textLength="4.4297" x="127.2397" y="482.9">&#160;</text><text fill="#222222" font-family="sans-serif" font-size="14" lengthAdjust="spacing" textLength="208.8789" x="25.0151" y="499.3883">- Domain workflows &amp; policies</text><text fill="#222222" font-family="sans-serif" font-size="14" lengthAdjust="spacing" textLength="193.5938" x="32.6577" y="515.8766">- Side effects &amp; notifications</text><text fill="#222222" font-family="sans-serif" font-size="14" lengthAdjust="spacing" textLength="192.7119" x="33.0986" y="532.3648">- Cross-system integrations</text><text fill="#222222" font-family="sans-serif" font-size="14" lengthAdjust="spacing" textLength="183.9346" x="37.4873" y="548.8531">- Enrichment &amp; projections</text></g><!--link Api to Db--><g class="link" data-entity-1="Api" data-entity-2="Db" data-source-line="29" data-uid="lnk6" id="link_Api_Db"><path d="M129.45,130.9083 C129.45,150.4583 129.45,167.0283 129.45,184.0083" fill="none" id="Api-to-Db" style="stroke:#666666;stroke-width:1;"/><polygon fill="#666666" points="129.45,190.0083,133.45,181.0083,129.45,185.0083,125.45,181.0083,129.45,190.0083" style="stroke:#666666;stroke-width:1;"/></g><!--link Db to Events--><g class="link" data-entity-1="Db" data-entity-2="Events" data-source-line="30" data-uid="lnk7" id="link_Db_Events"><path d="M129.45,243.6683 C129.45,261.2783 129.45,278.7183 129.45,297.2983" fill="none" id="Db-to-Events" style="stroke:#666666;stroke-width:1;"/><polygon fill="#666666" points="129.45,303.2983,133.45,294.2983,129.45,298.2983,125.45,294.2983,129.45,303.2983" style="stroke:#666666;stroke-width:1;"/></g><!--link Events to Biz--><g class="link" data-entity-1="Events" data-entity-2="Biz" data-source-line="31" data-uid="lnk8" id="link_Events_Biz"><path d="M129.45,366.5883 C129.45,383.5583 129.45,399.3583 129.45,420.0683" fill="none" id="Events-to-Biz" style="stroke:#666666;stroke-width:1;"/><polygon fill="#666666" points="129.45,426.0683,133.45,417.0683,129.45,421.0683,125.45,417.0683,129.45,426.0683" style="stroke:#666666;stroke-width:1;"/></g><!--SRC=[bLB1Yjim4BthAmO7IlTWA6q9sql1YHCejB1iUin5aSVEDBOcZEIusz9_xrWsnDjRPR34UpDFCsyKARO81xnQiP7OGr5757X22HGYUeV6X0lvaU_WPDsb4UvzjUMM1OOpHLpmuMmh7iWtKDisB9aAQzktyJl-Z4LBZU_GHt3wGrb45I8yJDAhTLhBsmLTjBxHUdyRW0rBXJ87VqXBqJtxE6FlqrBiUIfOl3RsQFui9LtBVVLVSfeU-GgHuSGnidP6OrrgdJ7t0bUxOlznLq2sjVO0nTCNUEvzf0wF_kXpsAgiM1VXPbkgal4ZNABQqP5Nvyd1zJw336o0uaglhYZNkw9SGxQO5NorBoX7__OR-uRBpKDAB4_6J8skzk_63xAPX-rPnNJ-KT1scbVsOaygljVYmfIzk-cKmklcFgdA8sIRFf37CCVeAv8REGogau2y4j8TAkuiUHXOBdNBGtYOJ2Z_WU4DNBabHwD23WUg4B2kzTgHyXof9fUyIlnME8Gyl6Zd7P0-f4RkvCuBkNDwPAeg_6CQKKWTRUYNCUecvFddqPpob4vpezEMa37mBm00]--></g></svg>