<svg xmlns="http://www.w3.org/2000/svg" xmlns:xlink="http://www.w3.org/1999/xlink" contentStyleType="text/css" data-diagram-type="DESCRIPTION" height="567px" preserveAspectRatio="none" style="width:325px;height:567px;background:#FFFFFF;" version="1.1" viewBox="0 0 325 567" width="325px" zoomAndPan="magnify"><title>Architecture Separation After Persistence</title><defs/><g><g class="title" data-source-line="1"><text fill="#000000" font-family="sans-serif" font-size="14" font-weight="bold" lengthAdjust="spacing" textLength="297.7598" x="10" y="23.5352">Architecture Separation After Persistence</text></g><!--entity Api--><g class="entity" data-entity="Api" data-source-line="21" data-uid="ent0002" id="entity_Api"><rect fill="#EAF4EA" height="85.9531" rx="4" ry="4" style="stroke:#333333;stroke-width:0.5;" width="161.2236" x="85.7653" y="44.4883"/><text fill="#222222" font-family="sans-serif" font-size="14" lengthAdjust="spacing" textLength="119.3623" x="106.696" y="68.0234">CaaS API Runtime</text><text fill="#222222" font-family="sans-serif" font-size="14" lengthAdjust="spacing" textLength="4.4297" x="164.1623" y="84.5117">&#160;</text><text fill="#222222" font-family="sans-serif" font-size="14" lengthAdjust="spacing" textLength="141.2236" x="95.7653" y="101">- Contract validation</text><text fill="#222222" font-family="sans-serif" font-size="14" lengthAdjust="spacing" textLength="88.8125" x="121.9709" y="117.4883">- Persistence</text></g><!--entity Db--><g class="entity" data-entity="Db" data-source-line="22" data-uid="ent0003" id="entity_Db"><rect fill="#D6EAD6" height="52.9766" rx="4" ry="4" style="stroke:#333333;stroke-width:0.5;" width="136.751" x="98.0053" y="190.4383"/><text fill="#222222" font-family="sans-serif" font-size="14" lengthAdjust="spacing" textLength="116.751" x="108.0053" y="213.9734">Persistence Layer</text><text fill="#222222" font-family="sans-serif" font-size="14" lengthAdjust="spacing" textLength="78.75" x="127.0058" y="230.4617">(Mongo DB)</text></g><!--entity Events--><g class="entity" data-entity="Events" data-source-line="23" data-uid="ent0004" id="entity_Events"><path d="M82.2754,312.9183 C85.2563,307.4186 89.7768,307.7641 93.1107,312.5464 C97.3389,306.3811 103.1371,307.2546 106.7321,313.2554 C108.9018,308.2306 114.0657,306.8248 117.8616,311.3627 C121.5984,306.3621 126.6978,305.0435 130.0166,311.795 C134.2199,305.9566 139.0405,305.5119 142.8971,312.1529 C145.171,306.2196 150.524,305.819 154.4381,310.3427 C158.9078,304.2236 164.0668,303.7998 168.2245,310.6738 C172.8403,305.3201 177.1632,305.4144 180.885,311.6503 C184.1648,305.8492 189.4965,306.3099 192.3807,312.0445 C195.783,305.4365 201.8362,305.6634 204.7457,312.4979 C208.9099,307.1569 213.7723,306.6765 217.6974,312.7687 C219.8022,306.6858 224.5111,306.4002 228.0803,311.3964 C231.3585,305.7387 237.2185,305.4863 240.5633,311.3241 C245.2183,305.7586 251.0599,307.1672 253.6308,313.5949 C261.0194,314.8051 262.3579,319.0652 258.1323,324.9001 C263.7949,326.2666 266.9272,330.3419 262.5548,335.7855 C267.0648,341.7546 265.0852,347.1863 257.2982,347.755 C262.6681,353.1465 259.4514,358.8499 253.0867,360.303 C250.6638,366.9745 245.8004,366.3139 241.7421,361.9904 C238.4434,368.4243 233.2611,368.1474 228.9283,363.1494 C225.8581,368.2777 220.5847,368.6074 217.4571,363.212 C213.9337,370.7338 208.9559,369.9157 204.2437,364.4184 C201.2122,371.2826 196.627,371.9824 191.4972,366.6028 C188.06,371.871 184.1848,373.1754 179.5557,367.9606 C177.2211,373.5742 173.146,375.0135 168.7017,370.1451 C163.9803,376.703 157.6361,375.4091 154.4905,368.4841 C149.3499,372.9287 145.034,373.0528 142.3804,365.8895 C138.6194,371.3449 134.95,372.0564 130.8306,366.2574 C125.8526,371.1655 121.7539,371.5253 118.0128,364.8845 C113.5185,370.0277 108.1507,369.4297 105.9245,362.5954 C100.2474,368.7313 96.5021,366.4766 93.1742,360.1851 C89.2833,364.6948 83.8947,364.946 81.5477,358.5407 C75.8254,355.2869 75.7475,351.2711 80.4846,347.0496 C73.7207,345.2101 72.986,339.5096 77.8594,335.1111 C72.2641,330.5221 74.0963,325.3063 80.5399,323.4954 C75.2271,319.5817 76.0405,314.9372 82.2754,312.9183" fill="#F0F0F0" style="stroke:#333333;stroke-width:0.5;"/><text fill="#222222" font-family="sans-serif" font-size="14" lengthAdjust="spacing" textLength="157.7393" x="87.5053" y="331.9534">MongoDB Event Stream</text><text fill="#222222" font-family="sans-serif" font-size="14" lengthAdjust="spacing" textLength="133.5127" x="99.6186" y="348.4417">(Persistence Events)</text></g><!--entity Biz--><g class="entity" data-entity="Biz" data-source-line="24" data-uid="ent0005" id="entity_Biz"><rect fill="#E9F0F8" height="135.418" rx="4" ry="4" style="stroke:#333333;stroke-width:0.5;" width="244.9092" x="43.9253" y="426.3883"/><text fill="#222222" font-family="sans-serif" font-size="14" lengthAdjust="spacing" textLength="158.5732" x="87.0933" y="449.9234">Business Event Services</text><text fill="#222222" font-family="sans-serif" font-size="14" lengthAdjust="spacing" textLength="224.9092" x="53.9253" y="466.4117">(Event-driven domain workflows)</text><text fill="#222222" font-family="sans-serif" font-size="14" lengthAdjust="spacing" textLength="4.4297" x="164.165" y="482.9">&#160;</text><text fill="#222222" font-family="sans-serif" font-size="14" lengthAdjust="spacing" textLength="208.8789" x="61.9404" y="499.3883">- Domain workflows &amp; policies</text><text fill="#222222" font-family="sans-serif" font-size="14" lengthAdjust="spacing" textLength="193.5938" x="69.583" y="515.8766">- Side effects &amp; notifications</text><text fill="#222222" font-family="sans-serif" font-size="14" lengthAdjust="spacing" textLength="192.7119" x="70.0239" y="532.3648">- Cross-system integrations</text><text fill="#222222" font-family="sans-serif" font-size="14" lengthAdjust="spacing" textLength="172.9902" x="79.8848" y="548.8531">- Read model projections</text></g><!--link Api to Db--><g class="link" data-entity-1="Api" data-entity-2="Db" data-source-line="26" data-uid="lnk6" id="link_Api_Db"><path d="M166.3753,130.9083 C166.3753,150.4583 166.3753,167.0283 166.3753,184.0083" fill="none" id="Api-to-Db" style="stroke:#666666;stroke-width:1;"/><polygon fill="#666666" points="166.3753,190.0083,170.3753,181.0083,166.3753,185.0083,162.3753,181.0083,166.3753,190.0083" style="stroke:#666666;stroke-width:1;"/></g><!--link Db to Events--><g class="link" data-entity-1="Db" data-entity-2="Events" data-source-line="27" data-uid="lnk7" id="link_Db_Events"><path d="M166.3753,243.6683 C166.3753,261.2783 166.3753,278.7183 166.3753,297.2983" fill="none" id="Db-to-Events" style="stroke:#666666;stroke-width:1;"/><polygon fill="#666666" points="166.3753,303.2983,170.3753,294.2983,166.3753,298.2983,162.3753,294.2983,166.3753,303.2983" style="stroke:#666666;stroke-width:1;"/></g><!--link Events to Biz--><g class="link" data-entity-1="Events" data-entity-2="Biz" data-source-line="28" data-uid="lnk8" id="link_Events_Biz"><path d="M166.3753,366.5883 C166.3753,383.5583 166.3753,399.3583 166.3753,420.0683" fill="none" id="Events-to-Biz" style="stroke:#666666;stroke-width:1;"/><polygon fill="#666666" points="166.3753,426.0683,170.3753,417.0683,166.3753,421.0683,162.3753,417.0683,166.3753,426.0683" style="stroke:#666666;stroke-width:1;"/></g><!--SRC=[bLB1Yjim4BtxAuO4IlTWADiIjfU27ITGQ659Uin5aSRUsSWQCvBZRal_lPASicvlbS4IxyqypNjse60HAj5F5527KH2EE2XHWTX1rGOKU4Jnv0CwZKNXB-GItyDPwKidF3gpPSi2Kv9OyFv96Px8TT0gwvUCmLQDDdp3xw6orBaUNG0TNoYBgag4frbwlSbhURl4QPNhul0_2u2QnQ3SYj_d5T4zkt33xlEAs64UM5mqzb3yMafgowFvBxdO7dY0m73c43WwepHNZAueNWTSxwhzXrq5gwrIHwWUFyDXT85wFBcJAs4RPKNf05TboUJW4xn8VGNAGpNGKhFPxAfc0wj56NnHBoWdz_OhkuwXgUzoOtCkPcVh_Rlqm2hpJGsxQmh-60HL7zkMKfdoiy1y_ilGnoZq0AjwzEJG-pzAA5VIwADM1aeZ57Smt2joCB5SMikJlvkDD__0y0O6jgGfAPHm98E0RHklJPJZG2tfd4_cjyBUb_ubJjm3nP-darVoWCf0pmOj3CBFyqVnsKvDFueYfWbb-Ic5qvppwUPotZAI2dy3]--></g></svg>